<svg version="1.2" xmlns="http://www.w3.org/2000/svg" viewBox="0 0 112 129" width="112" height="129">
	<title>supabase-logo-vector</title>
	<defs>
		<linearGradient id="g1" x2="1" gradientUnits="userSpaceOnUse" gradientTransform="matrix(41.417,16.162,-27.134,69.536,51.288,77.142)">
			<stop offset="0" stop-color="#249361"/>
			<stop offset="1" stop-color="#3ecf8e"/>
		</linearGradient>
		<linearGradient id="g2" x2="1" gradientUnits="userSpaceOnUse" gradientTransform="matrix(20.675,36.211,-44.024,25.136,50.277,32.445)">
			<stop offset="0" stop-color="#000000" stop-opacity="1"/>
			<stop offset="1" stop-color="#000000" stop-opacity="0"/>
		</linearGradient>
	</defs>
	<style>
		.s0 { fill: #3ecf8e } 
		.s1 { fill: url(#g1) } 
		.s2 { opacity: .2;fill: url(#g2) } 
	</style>
	<path class="s0" d="m5.6 78.3c-3.1 0-5.6-2.5-5.6-5.6 0-1.2 0.4-2.4 1.1-3.3l2.1-3 48.5-65.5c0.4-0.5 1-0.9 1.7-0.9 1.2 0 2.1 0.9 2.1 2.1v0.2 75.9h-49.9z"/>
	<path class="s1" d="m105.6 50c3.1 0 5.6 2.5 5.6 5.6 0 1.2-0.4 2.4-1.1 3.3l-2.1 3-48.5 65.5c-0.4 0.5-1 0.9-1.7 0.9-1.2 0-2.1-0.9-2.1-2.1v-0.2-76z"/>
	<path class="s2" d="m105.6 50c3.1 0 5.6 2.5 5.6 5.6 0 1.2-0.4 2.4-1.1 3.3l-2.1 3-48.5 65.5c-0.4 0.5-1 0.9-1.7 0.9-1.2 0-2.1-0.9-2.1-2.1v-0.2-76z"/>
</svg>