<svg version="1.2" xmlns="http://www.w3.org/2000/svg" viewBox="0 0 1751 425" width="1751" height="425">
	<title>tileset</title>
	<style>
		.s0 { fill: #000000 } 
	</style>
	<path id="MWOK" class="s0" aria-label="MWOK"  d="m428.6 417v-409.7h-104.2l-109.2 310.5-110.4-310.5h-104.2v409.7h76v-307.1l107 307.1h62l107-307.1v307.1zm531.2-409.7h-77.7l-72.6 286.1-68.7-286.1h-55.5l-69.8 286.1-72.1-286.1h-77.6l120.3 409.7h59.9l67.6-271.1 66 271.1h60.4zm436.3 204.6c0-117-93.7-211.8-210.7-211.8-121.9 0-216.2 92.6-216.2 212.3 0 118.1 95.4 211.8 215.7 211.8 119.2 0 211.2-92.6 211.2-212.3zm-76.5 1.1c0 78.7-57.6 138-135.3 138-77.6 0-138.6-61-138.6-138.6 0-79.3 59.9-139.1 138.6-139.1 76 0 135.3 61 135.3 139.7zm430.8 204l-154.1-208.5 154.1-201.2h-91.5l-127 176.9v-176.9h-75.9v409.7h75.9v-180.2l127 180.2z"/>
</svg>