<svg version="1.2" xmlns="http://www.w3.org/2000/svg" viewBox="0 0 869 425" width="869" height="425">
	<title>tileset</title>
	<style>
		.s0 { fill: #000000 } 
	</style>
	<path id="RPS" class="s0" aria-label="RPS"  d="m277.8 417l-110.9-151.4c73.8-18.2 107-63.2 107-126.9 0-41.6-15-77.1-43.2-100.9-26.6-22.7-56-30.5-112-30.5h-118.1v409.7h76v-156.9l107.5 156.9zm-80.4-276.1c0 43.3-24.9 62.1-83.7 62.1h-37.1v-123.1h33.8c72 0 87 24.4 87 61zm386.4-7.2c0-47.1-19.9-85.9-55.4-107.6-23.3-13.8-50.5-18.8-104.8-18.8h-101.4v409.7h75.9v-155.8h24.4c58.2 0 84.8-4.4 107.6-18.3 33.2-20.5 53.7-62.1 53.7-109.2zm-76.5 1.1c0 35.5-18.8 53.8-87 53.8h-22.2v-108.7h25.5c58.2 0 83.7 11.7 83.7 54.9zm360.9 158c0-55.4-22.7-91.5-105.8-122.5-38.9-14.4-40-15-45.5-18.3-15-9.4-22.7-22.2-22.7-37.1 0-24.4 17.1-41.6 42.1-41.6 25.5 0 41 15.5 43.2 43.2h78.8c-3.9-72.1-55.5-116.4-121.5-116.4-65.9 0-119.1 51.6-119.1 116.4 0 51.6 30.4 90.9 85.3 111.4 54.4 20.6 58.8 22.2 71 31.7 12.2 9.4 18.8 24.9 18.8 41.5 0 29.4-22.7 49.9-55.4 49.9-33.8 0-52.1-16.6-55.4-51h-79.3c6.6 77.6 62.6 124.2 134.7 124.2 73.7 0 130.8-57.1 130.8-131.4z"/>
</svg>