<svg version="1.2" xmlns="http://www.w3.org/2000/svg" viewBox="0 0 1875 462" width="1875" height="462">
	<title>New Project (1)</title>
	<style>
		.s0 { fill: #000000 } 
	</style>
	<path id="TILESET" class="s0" aria-label="TILESET"  d="m247.9 87.6v-78.9h-247.7v78.9h82.6v366.4h82.5v-366.4zm124.8 366.4v-445.3h-82.6v445.3zm304.9 0v-78.9h-136.2v-366.4h-82.5v445.3zm285.6 0v-78.9h-156.7v-103.7h150.1v-78.9h-150.1v-104.9h156.7v-78.9h-239.2v445.3zm330.2-135c0-60.2-24.7-99.4-115.1-133.2-42.2-15.6-43.4-16.2-49.4-19.8-16.3-10.3-24.7-24.2-24.7-40.4 0-26.5 18.7-45.2 45.8-45.2 27.7 0 44.6 16.9 47 47h85.6c-4.3-78.4-60.3-126.6-132-126.6-71.7 0-129.6 56.1-129.6 126.6 0 56 33.2 98.8 92.8 121.1 59.1 22.3 63.9 24.1 77.2 34.4 13.2 10.2 20.4 27.1 20.4 45.2 0 31.9-24.7 54.2-60.2 54.2-36.8 0-56.7-18.1-60.3-55.5h-86.1c7.2 84.4 68 135 146.4 135 80.1 0 142.2-62 142.2-142.8zm296.5 135v-78.9h-156.7v-103.7h150.1v-78.9h-150.1v-104.9h156.7v-78.9h-239.3v445.3zm285.1-366.4v-78.9h-247.7v78.9h82.6v366.4h82.5v-366.4z"/>
</svg>