<svg version="1.2" xmlns="http://www.w3.org/2000/svg" viewBox="0 0 1280 462" width="1280" height="462">
	<title>New Project</title>
	<style>
		.s0 { fill: #231f20 } 
	</style>
	<path id="LBTC" class="s0" aria-label="LBTC"  d="m220.7 454v-79.3h-136.9v-368.3h-83v447.6zm337.4-133.2c0-53.3-19.4-87.3-76.3-110.9 35.7-18.8 49.6-42.4 49.6-84.2 0-41.8-18.8-76.9-50.9-97.5-26.6-17-54.5-21.8-121.1-21.8h-92.1v447.6h119.4c115 0 171.4-51.5 171.4-133.2zm-83.6-1.9c0 38.8-24.8 55.8-83 55.8h-41.2v-114.5h39.4c57.5 0 84.8 18.8 84.8 58.7zm-26.1-185.9c0 32.1-21.2 46-71.4 46h-26.7v-91.4h33.9c43 0 64.2 14.5 64.2 45.4zm382.2-47.3v-79.3h-248.9v79.3h83v368.3h82.9v-368.3zm449.5 243.5h-97.6c-36.3 38.2-67.8 52.7-110.8 52.7-82.4 0-150.2-69-150.2-152.6 0-84.2 63-150.8 148.4-150.8 52.1 0 87.2 16.9 117.5 56.3h92.7c-39.4-86.6-120-136.3-212-136.3-126.6 0-230.2 103.6-230.2 230.2 0 129 104.8 233.2 235.6 233.2 91.5 0 171.4-50.9 206.6-132.7z"/>
</svg>